<?xml version="1.0" encoding="UTF-8" standalone="no"?><!DOCTYPE svg PUBLIC "-//W3C//DTD SVG 1.1//EN" "http://www.w3.org/Graphics/SVG/1.1/DTD/svg11.dtd"><svg width="100%" height="100%" viewBox="0 0 178 188" version="1.1" xmlns="http://www.w3.org/2000/svg" xmlns:xlink="http://www.w3.org/1999/xlink" xml:space="preserve" xmlns:serif="http://www.serif.com/" style="fill-rule:evenodd;clip-rule:evenodd;stroke-linejoin:round;stroke-miterlimit:1.5;"><g><path d="M0,43.829c0,0 64.094,-32.019 82.718,-41.322c3.162,-1.58 6.88,-1.593 10.053,-0.035c18.857,9.258 84.231,41.356 84.231,41.356l0,99.281l-88.501,44.25l0,0.001l-88.501,-44.25l0,-99.281Z" style="fill:#474484;"/><path d="M177.002,43.828c0,0 -65.374,-32.098 -84.231,-41.356c-3.173,-1.558 -6.891,-1.545 -10.053,0.035c-18.624,9.303 -82.718,41.322 -82.718,41.322l88.501,44.25l88.501,-44.251Z" style="fill:#353363;"/><clipPath id="_clip1"><path d="M177.002,43.828c0,0 -65.374,-32.098 -84.231,-41.356c-3.173,-1.558 -6.891,-1.545 -10.053,0.035c-18.624,9.303 -82.718,41.322 -82.718,41.322l88.501,44.25l88.501,-44.251Z"/></clipPath><g clip-path="url(#_clip1)"><path d="M94.556,44.028l-71.844,35.921l0,-12.883l45.542,-22.77l-45.542,-22.771l0,-12.771l0.648,-0.324l71.196,35.598Z" style="fill:#504d94;stroke:#373363;stroke-width:4px;"/><path d="M16.658,44.028l71.843,35.921l0,-12.883l-45.541,-22.77l45.541,-22.771l0,-12.771l-0.647,-0.324l-71.196,35.598Z" style="fill:#504d94;stroke:#373363;stroke-width:4px;"/></g><path d="M88.501,88.079l-88.501,-44.25l0,99.281l88.501,44.25l0,-99.281Z" style="fill:#474484;"/><path d="M40.722,89.016c3.205,1.671 6.232,3.967 9.081,6.887c2.849,2.92 5.342,6.166 7.478,9.74c2.137,3.573 3.828,7.336 5.075,11.291c1.246,3.954 1.869,7.775 1.869,11.464c0,3.74 -0.634,6.931 -1.903,9.574c-1.268,2.643 -2.971,4.636 -5.108,5.981c-2.136,1.345 -4.629,1.992 -7.478,1.941c-2.849,-0.051 -5.876,-0.913 -9.08,-2.584l-14.623,-7.625c-1.246,-0.65 -2.415,-1.528 -3.505,-2.635c-1.091,-1.106 -2.048,-2.348 -2.872,-3.726c-0.823,-1.377 -1.469,-2.815 -1.936,-4.314c-0.467,-1.498 -0.701,-2.965 -0.701,-4.4l0,-33.581c0,-1.434 0.234,-2.657 0.701,-3.668c0.467,-1.012 1.113,-1.777 1.936,-2.295c0.824,-0.518 1.781,-0.762 2.872,-0.731c1.09,0.03 2.259,0.371 3.505,1.021l14.689,7.66Z" style="fill:#353363;fill-rule:nonzero;"/><path d="M88.501,88.079l88.501,-44.251l0,99.281l-88.501,44.25l0,-99.28Z" style="fill:#5956a5;"/><path d="M136.004,136.111l2.738,1.8c1.201,0.757 2.57,1.08 4.106,0.971c1.536,-0.109 3.105,-0.581 4.707,-1.417c1.603,-0.836 3.172,-2 4.707,-3.492c1.536,-1.493 2.905,-3.244 4.107,-5.254c1.202,-2.01 2.103,-4.055 2.704,-6.136c0.601,-2.081 0.901,-4.043 0.901,-5.887c0,-1.845 -0.3,-3.494 -0.901,-4.948c-0.601,-1.454 -1.502,-2.559 -2.704,-3.316l-22.301,-14.037c-1.158,-0.728 -2.504,-1.063 -4.04,-1.005c-1.536,0.058 -3.149,0.528 -4.841,1.41c-1.736,0.905 -3.349,2.118 -4.84,3.638c-1.492,1.521 -2.805,3.23 -3.94,5.128c-1.135,1.899 -2.025,3.874 -2.671,5.927c-0.645,2.053 -0.968,4.078 -0.968,6.076l0,25.743c0,1.998 0.323,3.687 0.968,5.066c0.646,1.38 1.536,2.427 2.671,3.142c1.135,0.714 2.448,1.054 3.94,1.019c1.491,-0.035 3.104,-0.505 4.84,-1.41c2.315,-1.207 4.441,-2.981 6.377,-5.323c1.936,-2.342 3.416,-4.907 4.44,-7.695Z" style="fill:#353363;fill-rule:nonzero;"/></g></svg>