<svg viewBox="0 0 136 136" widht="200" height="200" xmlns="http://www.w3.org/2000/svg" xmlns:serif="http://www.serif.com/" fill-rule="evenodd" clip-rule="evenodd" stroke-linejoin="round" stroke-miterlimit="1.41"><path fill="none" d="M0 0h136v136H0z"/><g opacity=".3"><clipPath id="a"><path serif:id="001-idea" d="M48.35 67.27H77.5v29.15H48.35z"/></clipPath><g clip-path="url(#a)" fill-rule="nonzero"><path d="M53.11 78.5H51.7a.43.43 0 1 0 0 .86h1.42a.43.43 0 1 0 0-.86zM74.16 78.5h-1.42a.43.43 0 0 0 0 .86h1.42a.43.43 0 1 0 0-.86zM56.29 85.57a.43.43 0 0 0-.6 0l-1 1a.43.43 0 1 0 .6.6l1-1a.43.43 0 0 0 0-.6zM62.93 67.27c-.24 0-.43.2-.43.43v1.41a.43.43 0 0 0 .85 0V67.7c0-.24-.19-.43-.42-.43zM71.17 86.57l-1-1a.43.43 0 1 0-.6.6l1 1a.43.43 0 1 0 .6-.6zM56.29 71.69l-1-1a.43.43 0 1 0-.6.6l1 1c.16.17.43.17.6 0a.43.43 0 0 0 0-.6zM73.1 69.98h-2.47a1.04 1.04 0 0 0 0 2.08l-1.2 1.23a8.63 8.63 0 0 0-5.46-2.91.43.43 0 0 0-.1.85c1.92.23 3.7 1.2 4.95 2.68l-4.45 4.53-1.37-.97a1.04 1.04 0 0 0-1.38.16l-3.54 3.98A1.04 1.04 0 0 0 59.63 83l2.93-3.29 1.32.94c.42.3.99.25 1.35-.12l4.74-4.81c.3.65.5 1.33.6 2.05a.43.43 0 1 0 .84-.13 8.5 8.5 0 0 0-.8-2.57l1.44-1.47v.01a1.04 1.04 0 0 0 2.09 0v-2.59c0-.57-.47-1.04-1.05-1.04zm.18 3.63c0 .25-.37.25-.37 0v-1.06a.43.43 0 0 0-.74-.3l-7.55 7.68a.19.19 0 0 1-.24.03l-1.64-1.17a.43.43 0 0 0-.57.07L59 82.43a.19.19 0 1 1-.29-.25l3.55-3.99a.19.19 0 0 1 .25-.03l1.66 1.18c.17.12.4.1.55-.04l7.24-7.36a.43.43 0 0 0-.3-.73h-1.03c-.25 0-.25-.38 0-.38h2.46c.1 0 .2.09.2.2v2.58z"/><path d="M71.08 79.27a.43.43 0 0 0-.47.39 7.77 7.77 0 0 1-3.58 5.78 2.87 2.87 0 0 0-1.36 2.44v1.76h-5.49v-1.8c0-.96-.5-1.87-1.31-2.38a7.74 7.74 0 0 1 3.12-14.24.43.43 0 1 0-.11-.84 8.6 8.6 0 0 0-3.46 15.81c.56.35.91.98.91 1.65v1.86c-.43.15-.75.56-.75 1.05v.6c0 .27.1.5.24.7-.15.18-.24.42-.24.67v.61c0 .62.5 1.11 1.11 1.11h1.35v.97c0 .56.45 1 1 1h1.77c.56 0 1-.44 1-1v-.97h1.35c.61 0 1.11-.5 1.11-1.1v-.62c0-.25-.09-.49-.23-.68.14-.19.23-.42.23-.68v-.61c0-.49-.31-.9-.74-1.05v-1.82c0-.7.35-1.34.95-1.72a8.65 8.65 0 0 0 3.98-6.42.43.43 0 0 0-.38-.47zm-7.12 16.14c0 .08-.07.15-.15.15h-1.77a.16.16 0 0 1-.15-.15v-.97h2.07v.97zm2.46-2.08c0 .14-.12.26-.26.26H59.7a.26.26 0 0 1-.25-.26v-.6c0-.15.11-.26.25-.26h6.47c.14 0 .26.12.26.25v.61zm0-1.97c0 .14-.12.25-.26.25H59.7a.26.26 0 0 1-.25-.25v-.61c0-.14.11-.26.25-.26h6.47c.14 0 .26.12.26.26v.6z"/></g><clipPath id="b"><path serif:id="002-rocket" d="M86.26 41.65h22.84v22.84H86.26z"/></clipPath><g clip-path="url(#b)" fill-rule="nonzero"><path d="M89.61 58.09a.33.33 0 0 0-.47 0L88 59.23a.34.34 0 0 0 0 .47c.13.13.35.13.48 0l1.13-1.14a.33.33 0 0 0 0-.47zM90.72 59.2a.33.33 0 0 0-.47 0l-1.14 1.13a.33.33 0 0 0 .47.48l1.14-1.14a.33.33 0 0 0 0-.48zM92.94 61.4a.34.34 0 0 0-.48 0l-1.14 1.15a.33.33 0 1 0 .48.47l1.13-1.14a.34.34 0 0 0 0-.47zM91.83 60.3a.33.33 0 0 0-.47 0l-1.14 1.14a.33.33 0 1 0 .47.47l1.14-1.13a.33.33 0 0 0 0-.48zM108.27 41.68l-7 2.05a.34.34 0 0 0-.15.08l-4.68 4.68-2.1.18a12.65 12.65 0 0 0-7.87 3.66.74.74 0 0 0 .46 1.25l4.06.36-.42.42a.67.67 0 0 0 0 .94l.41.41-.82.82a.83.83 0 0 0 0 1.18l2.89 2.89c.32.32.85.32 1.17 0l.82-.83.39.39a.7.7 0 0 0 .99 0l.4-.4.35 4.06c.03.3.21.53.48.63.28.1.57.04.78-.17 1.3-1.3 2.28-2.83 2.91-4.55a.34.34 0 0 0-.62-.23 11.9 11.9 0 0 1-2.76 4.3.07.07 0 0 1-.12-.04l-.4-4.62 4.09-4.1c-.14 1.66-.17 2.1-.36 2.94-.04.18.07.36.25.4.18.04.36-.07.4-.25.23-1.03.25-1.52.44-3.82l4.68-4.68a.34.34 0 0 0 .09-.14l.93-3.18 1.11-3.82a.65.65 0 0 0-.8-.8zM86.99 52.92a.07.07 0 0 1-.04-.12c2-2 4.64-3.23 7.45-3.46l1.3-.11-4.09 4.09-4.62-.4zm4.75 1.22l1.82 1.82-.69.7-1.82-1.83.69-.69zm-.15 3.8a.82.82 0 0 0-.12.14l-.84-.85a.16.16 0 0 1 0-.22l.82-.83.95.95-.82.81zm.77.74a.2.2 0 0 1-.28 0 .2.2 0 0 1 0-.28l6.67-6.67a.2.2 0 1 1 .28.28l-4.48 4.47c-.24.24-1.98 2-2.2 2.2zm1.39 1.44a.16.16 0 0 1-.12.05c-.02 0-.07 0-.1-.05l-.85-.84c.05-.03.1-.07.13-.11l.82-.81.94.94-.82.83zm2.2-.44a.03.03 0 0 1-.05 0l-1.8-1.8.69-.69 1.82 1.82-.67.67zm10.46-10.46l-9.32 9.32-1.83-1.82 4.26-4.25c.3-.31.36-.84-.04-1.23a.84.84 0 0 0-1.2 0l-4.24 4.25-1.83-1.82 9.32-9.32 2.9-.85 2.83 2.81-.85 2.91zm1.06-3.64l-2.3-2.3 3.25-.95-.95 3.25z"/><path d="M103.3 47.46c-.2-.2-.42-.35-.66-.46a.34.34 0 0 0-.28.61 1.56 1.56 0 1 1-1.28 0 .33.33 0 1 0-.28-.6 2.23 2.23 0 1 0 2.5.45z"/></g><path d="M19.89 113.22h-1.3c-.07-.25-.17-.5-.3-.73l.92-.91a.6.6 0 0 0 0-.86l-1.08-1.08a.6.6 0 0 0-.85 0l-.92.92a4.51 4.51 0 0 0-.72-.3v-1.3a.6.6 0 0 0-.6-.6H13.5a.6.6 0 0 0-.6.6v1.3c-.25.08-.5.18-.73.3l-.91-.92a.6.6 0 0 0-.86 0l-1.08 1.08a.6.6 0 0 0 0 .86l.92.91c-.12.23-.22.48-.3.73h-1.3a.6.6 0 0 0-.6.6v1.52c0 .34.27.61.6.61h1.3c.08.25.18.5.3.73l-.92.91a.6.6 0 0 0 0 .86l1.08 1.07a.6.6 0 0 0 .86 0l.9-.91c.24.12.49.22.74.3v1.3c0 .32.27.6.6.6h1.52a.6.6 0 0 0 .6-.6v-1.3c.26-.08.5-.18.73-.3l.92.91a.6.6 0 0 0 .85 0l1.08-1.07a.6.6 0 0 0 .18-.43.6.6 0 0 0-.18-.43l-.91-.91c.12-.24.22-.48.3-.73h1.29a.6.6 0 0 0 .6-.6v-1.53a.6.6 0 0 0-.6-.6zm-.25 1.88h-1.37c-.2 0-.37.13-.41.33-.1.38-.25.75-.46 1.1-.1.16-.08.38.06.52l.97.97-.72.72-.97-.97a.43.43 0 0 0-.53-.06c-.34.21-.7.37-1.1.46a.43.43 0 0 0-.33.41v1.37h-1.02v-1.37c0-.2-.14-.37-.33-.41-.39-.1-.76-.25-1.1-.46a.43.43 0 0 0-.52.06l-.97.97-.73-.72.97-.97a.43.43 0 0 0 .06-.53c-.2-.34-.36-.7-.45-1.1a.43.43 0 0 0-.42-.32H8.9v-1.03h1.37c.2 0 .37-.13.42-.33.09-.39.24-.76.45-1.1a.43.43 0 0 0-.06-.52l-.97-.97.73-.72.97.96c.14.14.35.17.52.07.34-.22.71-.37 1.1-.46.2-.04.33-.22.33-.41v-1.37h1.02v1.37c0 .2.14.37.33.41.4.1.76.24 1.1.46.17.1.39.07.53-.07l.97-.96.72.72-.97.97a.43.43 0 0 0-.06.53c.21.33.36.7.46 1.1.04.19.21.32.41.32h1.37v1.03z" fill-rule="nonzero"/><path d="M14.27 112.3a2.29 2.29 0 1 0 0 4.58 2.29 2.29 0 0 0 0-4.58zm0 3.72a1.43 1.43 0 1 1 0-2.87 1.43 1.43 0 0 1 0 2.87zM4.46 114.16H3.04a.43.43 0 1 0 0 .85h1.42a.43.43 0 0 0 0-.85zM25.5 114.16H24.1a.43.43 0 0 0 0 .85h1.41a.43.43 0 0 0 0-.85zM7.63 121.22a.43.43 0 0 0-.6 0l-1 1a.43.43 0 1 0 .6.6l1-1a.43.43 0 0 0 0-.6zM22.52 106.34a.43.43 0 0 0-.6 0l-1.01 1a.43.43 0 0 0 0 .6c.17.17.44.17.6 0l1-1a.43.43 0 0 0 0-.6zM14.27 102.92c-.23 0-.43.2-.43.43v1.42a.43.43 0 1 0 .86 0v-1.42c0-.23-.2-.43-.43-.43zM22.52 122.22l-1-1a.43.43 0 1 0-.61.6l1 1a.43.43 0 1 0 .6-.6zM7.63 107.34l-1-1a.43.43 0 1 0-.6.6l1 1c.17.17.44.17.6 0a.43.43 0 0 0 0-.6zM22.79 113.54a8.59 8.59 0 0 0-7.47-7.5.43.43 0 0 0-.1.84 7.69 7.69 0 0 1 6.72 6.76.43.43 0 0 0 .85-.1z" fill-rule="nonzero"/><path d="M22.41 115.16a.43.43 0 0 0-.48.37 7.7 7.7 0 0 1-3.56 5.56 2.87 2.87 0 0 0-1.36 2.45v1.75h-5.48v-1.8c0-.96-.5-1.87-1.32-2.37a7.74 7.74 0 0 1 3.12-14.24.43.43 0 0 0-.1-.85A8.62 8.62 0 0 0 6.8 118.8a8.63 8.63 0 0 0 2.95 3.06c.57.34.91.98.91 1.65v1.86c-.43.15-.74.56-.74 1.04v.61c0 .26.09.5.23.69a1.1 1.1 0 0 0-.23.68v.6c0 .62.5 1.12 1.1 1.12h1.35v.96c0 .56.45 1.01 1 1.01h1.77c.56 0 1.01-.45 1.01-1v-.97h1.35c.6 0 1.1-.5 1.1-1.11v-.61c0-.26-.08-.5-.23-.68.15-.2.24-.43.24-.69v-.6c0-.5-.32-.9-.75-1.05v-1.82c0-.7.36-1.35.96-1.72a8.55 8.55 0 0 0 3.95-6.19.43.43 0 0 0-.37-.47zm-7.1 15.9c0 .09-.07.16-.16.16H13.4a.16.16 0 0 1-.16-.16v-.96h2.08v.96zm2.45-2.07c0 .14-.12.25-.25.25h-6.47a.26.26 0 0 1-.26-.25v-.61c0-.14.12-.26.26-.26h6.47c.13 0 .25.12.25.26v.6zm0-1.98c0 .14-.12.26-.25.26h-6.47a.26.26 0 0 1-.26-.26v-.6c0-.15.12-.26.26-.26h6.47c.13 0 .25.11.25.25v.61zM60.7 39.51h-.02c-1.07-.17-1.93.48-2.23 1.7l-1.77 5.33a1.69 1.69 0 0 0-1.78.02 3.82 3.82 0 0 0-2.46-.7 5.22 5.22 0 0 0-3.84-2.17v-4.7h1.38c1.07 0 1.95-.87 1.95-1.95v-2.11c0-.24-.2-.43-.43-.43h-1.8c-1.08 0-1.95.88-1.95 1.95v.92a2.4 2.4 0 0 0-1.57-.58h-2.36c-.23 0-.43.2-.43.43v1.8a2.43 2.43 0 0 0 2.43 2.42h1.93v2.25a5.22 5.22 0 0 0-3.84 2.17h-.25c-.73 0-1.44.2-2.05.6a1.66 1.66 0 0 0-1.59.08l-1.77-5.32c-.3-1.23-1.15-1.88-2.23-1.7-1.41.27-1.62 1.61-1.51 2.37v.02l1.62 8.34a4.02 4.02 0 0 0 1.62 2.64l.02.01c2.96 1.95 3 1.87 3.59 2.8h-.85c-.5 0-.9.4-.9.88v6.11c0 .53.43.96.95.96h7.23c.2 0 .4-.07.56-.18a1 1 0 0 0 .57.18h2.88a.43.43 0 1 0 0-.85h-2.88a.14.14 0 0 1-.14-.14V59.2h7.47v3.5a.1.1 0 0 1-.1.1h-2.36a.43.43 0 0 0 0 .85h2.35c.53 0 .96-.43.96-.96v-6.1c0-.5-.4-.9-.9-.9h-.85c.6-.93.66-.86 3.59-2.79l.01-.01a4.02 4.02 0 0 0 1.62-2.64l.33-1.69a.43.43 0 0 0-.84-.16l-.33 1.7v.03a3.11 3.11 0 0 1-1.27 2.06c-3.14 2.07-3.13 1.93-4 3.31l-.12.2h-5.3c.51-3.03.4-2.8 2.27-5.5.46-.64.86-.83 3.93-2.85.74-.48 1.22.07 1.3.18l.01.02c.1.12.37.55-.08.95l-2.69 2.38a.43.43 0 0 0 .57.64l2.68-2.38c.7-.62.6-1.42.33-1.92l1.91-5.75v-.03l.01-.02c.14-.56.46-1.2 1.26-1.07.92.19.84 1.18.81 1.41l-.9 4.64a.43.43 0 1 0 .84.17l.9-4.66.01-.02c.1-.76-.1-2.1-1.5-2.38zm-14.88 1.07c-.87 0-1.57-.7-1.57-1.56v-1.38h1.93c.86 0 1.57.7 1.57 1.57v1.37h-1.93zm2.78-2.88v-1.25c0-.6.5-1.1 1.1-1.1h1.37v1.7c0 .6-.49 1.09-1.1 1.09H48.6v-.44zM38.25 52.2a3.1 3.1 0 0 1-1.28-2.1l-1.62-8.34c-.03-.23-.1-1.22.82-1.4.8-.13 1.12.5 1.25 1.06v.02l.02.03 1.91 5.75c-.28.5-.38 1.3.32 1.92l2.69 2.38c.18.15.45.14.6-.04a.43.43 0 0 0-.03-.6l-2.7-2.38c-.44-.4-.17-.83-.07-.95v-.01c.3-.38.76-.52 1.26-.22l1.38.9c1.88 1.23 2.21 1.45 2.6 1.98 1.92 2.77 1.77 2.56 2.27 5.5h-5.3l-.12-.2c-.87-1.38-.86-1.23-4-3.3zm9.54 10.6h-7.23a.1.1 0 0 1-.1-.1v-3.5h7.47v3.46c0 .08-.07.14-.14.14zm.14-6.2v1.74h-7.47V56.6c0-.03.02-.04.04-.04H47.9c.02 0 .03.02.03.04zm8.27-.05c.02 0 .05 0 .05.03v1.76h-7.47V56.6c0-.03.02-.04.04-.04h7.38zm-5.48-6.98c-1.98 2.56-2.2 4.09-2.37 5.05-.15-.9-.27-1.5-.5-2.08a20.2 20.2 0 0 0-1.95-3.08c-.47-.57-1.1-.94-3.44-2.48h-.01a2.94 2.94 0 0 1 1.62-.24c.16.02.32-.05.41-.2a4.37 4.37 0 0 1 7.39 0c.09.15.25.22.41.2a2.95 2.95 0 0 1 1.83.33c-2.36 1.55-2.9 1.87-3.4 2.5z" fill-rule="nonzero"/><clipPath id="c"><path serif:id="005-growth-1" d="M109.16 109.5h19.15v19.15h-19.15z"/></clipPath><g clip-path="url(#c)"><path d="M127.9 117.04h-.02c-.7-.65-1.5-.35-2.03.14l-1.14.95a3.9 3.9 0 0 0-2.61-1.13v-3.83h.9c.7 0 1.28-.57 1.28-1.28v-1.39a.28.28 0 0 0-.28-.28h-1.18c-.7 0-1.28.58-1.28 1.28v.17a2 2 0 0 0-1.47-.64h-1.53a.28.28 0 0 0-.28.28v1.16c0 1.1.9 2 2 2h1.28v2.55a3.88 3.88 0 0 0-2.95 1.94c-.31.03-.52.08-.77.17h-.01l-1.9.8-.03-.08a.63.63 0 0 0-.81-.36l-5.48 2.06a.68.68 0 0 0-.4.87l1.92 5.06c.13.35.52.53.87.4l5.47-2.07c.33-.12.5-.48.37-.81l-.02-.07c1.03-.44 1.01-.47 2.18-.47a.28.28 0 1 0 0-.56c-1.28 0-1.33.06-2.38.5l-1.5-3.95 1.92-.8c.55-.2.88-.16 3.63-.16.3 0 .51.1.65.32.09.15.11.31.12.36-.01.1-.08.62-.58.7-.77.13-2.43.37-2.44.37a.28.28 0 1 0 .08.56c.01 0 1.68-.24 2.45-.37.71-.12.98-.73 1.03-1.13l3.25-2.69h.01l.01-.02c.33-.3.8-.57 1.27-.15.53.52.04 1.14-.07 1.27l-4.1 4.4v.01c-.57.66-1.35.77-1.67.78h-.35a.28.28 0 0 0 0 .56h.37a2.96 2.96 0 0 0 2.07-.97l4.1-4.4c.37-.42.78-1.32.04-2.05zm-5.8-4.52v-1.01c0-.4.32-.73.72-.73h.9v1.11c0 .4-.32.72-.72.72h-.9v-.09zm-.59 1.39h-1.25c-.8 0-1.44-.65-1.44-1.44v-.88h1.25c.8 0 1.44.65 1.44 1.44v.88zm-4.21 11.29c.01.03 0 .08-.04.09l-1.25.47-.81-2.15a.28.28 0 0 0-.37-.17.28.28 0 0 0-.16.37l.81 2.15-3.7 1.4a.12.12 0 0 1-.15-.08l-1.9-5.06a.12.12 0 0 1 .06-.15l3.7-1.4.72 1.9a.28.28 0 0 0 .52-.19l-.71-1.9 1.25-.47c.03-.01.07 0 .09.04l1.94 5.15zm5.55-5.53a1.24 1.24 0 0 0-1.2-.74h-2.37a3.32 3.32 0 0 1 5-.44l-1.43 1.18z" fill-rule="nonzero"/></g><clipPath id="d"><path serif:id="005-growth-1" d="M21.78 80.78h19.15v19.15H21.78z"/></clipPath><g clip-path="url(#d)"><path d="M40.51 88.32c-.7-.65-1.51-.35-2.04.14l-1.14.95a3.9 3.9 0 0 0-2.6-1.13v-3.83h.9c.7 0 1.28-.57 1.28-1.28v-1.39a.28.28 0 0 0-.28-.28h-1.19c-.7 0-1.28.58-1.28 1.28v.17a2 2 0 0 0-1.46-.64h-1.54a.28.28 0 0 0-.28.28v1.16c0 1.1.9 2 2 2h1.28v2.55a3.88 3.88 0 0 0-2.95 1.94c-.31.02-.52.08-.77.17l-1.91.8-.03-.08a.63.63 0 0 0-.81-.37l-5.47 2.06a.68.68 0 0 0-.4.88l1.9 5.06c.14.35.53.53.88.4l5.48-2.07c.32-.12.49-.49.36-.81l-.02-.07c1.03-.44 1.02-.47 2.18-.47.2 0 .3-.14.3-.28 0-.15-.1-.28-.3-.28-1.28 0-1.33.06-2.38.5l-1.5-3.95 1.92-.8c.55-.2.88-.16 3.63-.16.3 0 .52.1.65.32.09.15.11.31.12.35-.01.11-.08.63-.58.71-.77.13-2.43.37-2.44.37a.28.28 0 0 0 .08.56c.01 0 1.68-.24 2.45-.38.72-.12.98-.72 1.04-1.12l3.24-2.69h.01l.02-.02c.32-.3.8-.57 1.26-.15.53.52.05 1.14-.06 1.27l-4.1 4.4a2.4 2.4 0 0 1-1.67.8h-.36a.28.28 0 1 0 0 .56h.38a2.96 2.96 0 0 0 2.06-.98l4.1-4.4v-.01c.37-.42.79-1.31.04-2.04zm-5.79-4.52v-1.02c0-.4.33-.72.72-.72h.9v1.11c0 .4-.32.72-.72.72h-.9v-.1zm-.58 1.39h-1.26c-.8 0-1.44-.65-1.44-1.44v-.88h1.25c.8 0 1.45.65 1.45 1.44v.88zm-4.22 11.29c.01.03 0 .07-.04.09l-1.25.47-.81-2.16a.28.28 0 1 0-.53.2l.81 2.16-3.7 1.39a.12.12 0 0 1-.15-.07l-1.9-5.06a.12.12 0 0 1 .06-.15l3.7-1.4.72 1.9c.06.15.22.23.36.17a.28.28 0 0 0 .17-.36l-.72-1.9 1.25-.47c.03-.02.07 0 .09.04l1.94 5.15zm5.56-5.53a1.24 1.24 0 0 0-1.21-.74H31.9a3.32 3.32 0 0 1 5-.44l-1.42 1.18z" fill-rule="nonzero"/></g><path d="M92.28 15.31a5.01 5.01 0 1 0 .01 10.03 5.01 5.01 0 0 0 0-10.03zm4.12 7.2l-.43-.25a.18.18 0 0 0-.24.06c-.04.09-.02.2.07.24l.42.25a4.7 4.7 0 0 1-1.46 1.46l-.25-.42a.18.18 0 1 0-.3.17l.24.42c-.6.32-1.27.51-2 .54v-.49a.18.18 0 0 0-.35 0v.49a4.62 4.62 0 0 1-2-.54l.25-.42a.18.18 0 1 0-.3-.17l-.25.42a4.69 4.69 0 0 1-1.46-1.46l.42-.25a.18.18 0 0 0-.17-.3l-.43.24a4.62 4.62 0 0 1-.53-2h.49a.18.18 0 0 0 0-.35h-.5c.03-.72.22-1.4.54-2l.43.25a.18.18 0 0 0 .24-.06.18.18 0 0 0-.07-.24l-.42-.25a4.7 4.7 0 0 1 1.46-1.46l.25.42a.18.18 0 0 0 .24.07.18.18 0 0 0 .06-.24l-.25-.43c.6-.32 1.28-.51 2-.54v.5a.18.18 0 1 0 .36 0v-.5c.72.03 1.4.22 2 .54l-.25.43a.18.18 0 1 0 .3.17l.25-.42c.6.37 1.1.87 1.46 1.46l-.42.25a.18.18 0 1 0 .09.33c.03 0 .06-.01.08-.03l.43-.25c.32.6.5 1.28.53 2h-.49a.18.18 0 1 0 0 .36h.5c-.03.71-.22 1.4-.54 2z" fill-rule="nonzero"/><path d="M94.91 20.2l-.55-.55a.18.18 0 0 0-.25.25l.25.26h-1.24v-.22c0-.25-.2-.46-.46-.46h-.2v-2.12l.25.25c.03.04.08.06.12.06.05 0 .1-.02.13-.06a.18.18 0 0 0 0-.25l-.55-.55a.18.18 0 0 0-.25 0l-.55.56a.18.18 0 1 0 .25.24l.24-.24v2.11h-.2c-.26 0-.46.2-.46.46v.77c0 .25.2.46.46.46h.76c.26 0 .46-.21.46-.46v-.2h1.24l-.25.25a.18.18 0 0 0 .12.3c.05 0 .1-.02.13-.06l.55-.55a.18.18 0 0 0 .05-.12c0-.05-.02-.1-.05-.13zm-2.14.5a.1.1 0 0 1-.1.11h-.77a.1.1 0 0 1-.1-.1v-.77c0-.06.04-.1.1-.1h.76c.06 0 .1.04.1.1v.77zM98.3 19.9a6.03 6.03 0 0 0-5.6-5.58c-.1-.01-.18.06-.18.16-.01.1.06.18.16.19a5.7 5.7 0 0 1 5.26 5.25c0 .1.08.17.17.17h.02c.1 0 .17-.1.16-.19z" fill-rule="nonzero"/><path d="M98.13 20.56c-.1 0-.18.07-.2.16a5.68 5.68 0 1 1-6.06-6.06.18.18 0 1 0-.01-.35 6.03 6.03 0 1 0 6.43 6.44c0-.1-.07-.18-.16-.19zM86.26 78.31a5.01 5.01 0 1 0 .01 10.03 5.01 5.01 0 0 0 0-10.03zm4.12 7.2l-.42-.25a.18.18 0 1 0-.18.3l.42.25a4.68 4.68 0 0 1-1.46 1.46l-.24-.42a.18.18 0 1 0-.3.17l.24.42c-.6.32-1.28.51-2 .54v-.49c0-.1-.08-.17-.18-.17-.1 0-.17.08-.17.17v.49a4.62 4.62 0 0 1-2-.54l.24-.42a.18.18 0 0 0-.3-.17l-.24.42a4.68 4.68 0 0 1-1.47-1.46l.43-.25a.18.18 0 0 0-.18-.3l-.42.24a4.62 4.62 0 0 1-.54-2h.49a.18.18 0 0 0 0-.35h-.5c.03-.72.22-1.4.54-2l.43.25a.18.18 0 0 0 .24-.06.18.18 0 0 0-.06-.25l-.43-.24c.37-.6.87-1.1 1.46-1.46l.25.42a.18.18 0 0 0 .24.07.18.18 0 0 0 .06-.24l-.24-.43c.6-.32 1.28-.51 2-.54v.5a.18.18 0 0 0 .35 0v-.5c.72.03 1.4.22 2 .54l-.25.43a.18.18 0 1 0 .3.17l.25-.42c.6.37 1.1.87 1.47 1.46l-.43.25a.18.18 0 1 0 .09.33l.09-.03.42-.25c.32.6.51 1.28.54 2h-.5a.18.18 0 0 0 0 .36h.5c-.03.71-.22 1.4-.54 2z" fill-rule="nonzero"/><path d="M88.9 83.2l-.56-.55a.18.18 0 0 0-.25.25l.25.25H87.1v-.2c0-.26-.2-.47-.46-.47h-.2v-2.12l.25.25a.17.17 0 0 0 .25 0 .18.18 0 0 0 0-.25l-.55-.55a.18.18 0 0 0-.25 0l-.55.55a.18.18 0 1 0 .25.25l.25-.24v2.11h-.2c-.26 0-.47.2-.47.46v.77c0 .25.2.46.46.46h.76c.26 0 .46-.21.46-.46v-.2h1.24l-.25.25a.18.18 0 0 0 .13.3c.04 0 .09-.02.12-.06l.55-.55a.18.18 0 0 0 .05-.12c0-.05-.02-.1-.05-.13zm-2.15.5a.1.1 0 0 1-.1.11h-.77a.1.1 0 0 1-.1-.1v-.77c0-.06.04-.1.1-.1h.77c.05 0 .1.04.1.1v.77zM92.27 82.9a6.03 6.03 0 0 0-5.58-5.59c-.1 0-.18.07-.2.17 0 .1.08.18.17.19a5.7 5.7 0 0 1 5.26 5.25c0 .1.08.17.18.17.1 0 .18-.1.17-.19z" fill-rule="nonzero"/><path d="M92.1 83.56c-.09 0-.17.07-.18.16a5.68 5.68 0 1 1-6.06-6.06.18.18 0 1 0-.02-.34 6.03 6.03 0 1 0 6.43 6.43c.01-.1-.06-.18-.16-.19zM15.64 38.89a5.01 5.01 0 1 0 .01 10.02 5.01 5.01 0 0 0-.01-10.02zm4.11 7.19l-.42-.25a.18.18 0 0 0-.24.07c-.05.08-.02.19.07.24l.42.24a4.7 4.7 0 0 1-1.46 1.46l-.25-.42a.18.18 0 0 0-.3.18l.24.42c-.6.32-1.28.5-2 .53v-.48a.18.18 0 1 0-.35 0v.48a4.62 4.62 0 0 1-2-.53l.25-.42a.18.18 0 0 0-.06-.24.18.18 0 0 0-.25.06l-.24.42a4.7 4.7 0 0 1-1.46-1.46l.42-.24a.18.18 0 0 0-.17-.3l-.43.24a4.6 4.6 0 0 1-.53-2h.49a.18.18 0 0 0 0-.35h-.5c.03-.72.22-1.4.54-2l.43.24c.02.02.05.03.08.03.06 0 .12-.03.16-.09a.18.18 0 0 0-.07-.24l-.42-.25a4.7 4.7 0 0 1 1.46-1.46l.24.43a.18.18 0 1 0 .31-.18l-.25-.43c.6-.32 1.28-.5 2-.54v.5a.18.18 0 1 0 .36 0v-.5c.72.03 1.4.22 2 .54l-.25.43a.18.18 0 0 0 .15.26c.06 0 .12-.03.15-.08l.25-.43c.59.37 1.09.87 1.46 1.46l-.42.25a.18.18 0 1 0 .18.3l.42-.24c.32.6.5 1.28.53 2h-.49a.18.18 0 1 0 0 .35h.5c-.04.72-.23 1.4-.55 2z" fill-rule="nonzero"/><path d="M18.27 43.78l-.55-.55a.18.18 0 0 0-.25.25l.25.25h-1.24v-.21c0-.26-.2-.46-.46-.46h-.2v-2.12l.25.25a.18.18 0 0 0 .25 0 .18.18 0 0 0 0-.25l-.55-.55a.17.17 0 0 0-.13-.05c-.05 0-.1.01-.12.05l-.55.55a.18.18 0 0 0 .25.25l.24-.25v2.12h-.2c-.26 0-.46.2-.46.46v.76c0 .25.2.46.46.46h.76c.25 0 .46-.2.46-.46v-.2h1.23l-.24.25a.18.18 0 0 0 .12.3c.05 0 .1-.02.13-.05l.55-.55a.18.18 0 0 0 0-.25zm-2.14.5a.1.1 0 0 1-.1.1h-.77a.1.1 0 0 1-.11-.1v-.76c0-.06.05-.11.1-.11h.77c.06 0 .1.05.1.1v.77zM21.65 43.48a6.03 6.03 0 0 0-5.59-5.6c-.1 0-.18.08-.18.17-.01.1.06.18.16.2a5.7 5.7 0 0 1 5.26 5.25c0 .1.08.16.17.16h.02c.1 0 .17-.09.16-.18z" fill-rule="nonzero"/><path d="M21.48 44.13c-.1 0-.18.07-.18.17a5.68 5.68 0 1 1-6.06-6.06.18.18 0 1 0-.03-.35 6.03 6.03 0 1 0 6.44 6.43c0-.1-.07-.18-.16-.19z" fill-rule="nonzero"/><clipPath id="e"><path serif:id="007-rocket-1" d="M6.08 6.35h17.15V23.5H6.08z"/></clipPath><g clip-path="url(#e)" fill-rule="nonzero"><path d="M14.67 10.25a1.13 1.13 0 1 0 0 2.26 1.13 1.13 0 0 0 0-2.26zm0 1.75a.62.62 0 1 1 0-1.25.62.62 0 0 1 0 1.25zM13.45 17.51a.25.25 0 0 0-.25.25v1.26c0 .14.11.25.25.25s.25-.11.25-.25v-1.25a.25.25 0 0 0-.25-.26zM14.67 17.51a.25.25 0 0 0-.25.25v1.26a.25.25 0 1 0 .5 0v-1.25a.25.25 0 0 0-.25-.26zM15.89 17.51a.25.25 0 0 0-.25.25v1.26a.25.25 0 0 0 .5 0v-1.25a.25.25 0 0 0-.25-.26z"/><path d="M21.41 21.09h-.5a.67.67 0 0 0 .03-.19V17a.25.25 0 0 0-.5 0v3.91c0 .1-.09.19-.19.19H9.05a.19.19 0 0 1-.19-.19v-9.28c0-.1.09-.18.19-.18h3.62v.8H9.96a.36.36 0 0 0-.32.35v7.37c0 .2.16.36.36.36h9.3c.2 0 .36-.16.36-.36V12.6a.36.36 0 0 0-.33-.35H16.67v-.8h3.58c.1 0 .19.08.19.18v4.2a.25.25 0 1 0 .5 0v-4.2c0-.38-.31-.68-.69-.68h-3.58v-1.3a.25.25 0 0 0-.04-.13l-1.61-2.95a.4.4 0 0 0-.7 0l-1.61 2.95a.25.25 0 0 0-.04.12v1.3H9.05c-.38 0-.69.31-.69.7v9.27c0 .07.01.13.03.19h-.5c-.37 0-.66.29-.66.65v1.1c0 .37.3.66.65.66h6.18a.25.25 0 1 0 0-.5H7.88a.15.15 0 0 1-.15-.15v-1.11c0-.08.07-.15.15-.15h4.14v.27c0 .38.3.68.69.68h3.88c.38 0 .7-.3.7-.68v-.27h4.13c.08 0 .15.07.15.15v1.1c0 .1-.07.16-.15.16h-6.18a.25.25 0 0 0 0 .5h6.18c.36 0 .65-.3.65-.65v-1.11c0-.36-.3-.65-.65-.65zm-9.8-8.35h.78c-.24.27-.45.51-.69.88h-.09v-.88zm-1.47 0h.97v.88h-.97v-.88zm9.01 0v.88h-1.51c-.24-.37-.45-.6-.69-.88h2.2zm-2.48.43l.16.2c.7.82 1.12 1.88 1.16 3.02l-1.32-1.12v-2.1zm-2-6.2l1.32 2.41h-2.64l1.32-2.41zm-1.5 2.91h3v5.52h-1.25v-2.3a.25.25 0 0 0-.5 0v2.3h-1.24V9.88zm2.63 6.02v.57l-.02.01h-.86v-.58h.88zm-2.26.57v-.57h.88v.58h-.86l-.02-.01zm-.72-.66a.4.4 0 0 0 .22.1v.56c0 .28.23.51.52.51h.86a.25.25 0 0 0 .5 0h.86c.29 0 .52-.23.52-.51v-.57a.43.43 0 0 0 .22-.1l1.29 1.09c.27.23.69.03.69-.33 0-.85-.2-1.68-.58-2.43h1.23v5.69h-9v-5.7h1.26a5.46 5.46 0 0 0-.57 2.44c0 .36.41.56.7.33l1.28-1.08zm-.15-.54l-1.33 1.12c.04-.98.36-1.93.94-2.72.13-.19.23-.3.4-.5v2.1zm4.1 6.59c0 .1-.08.18-.18.18h-3.88a.19.19 0 0 1-.19-.18v-.27h4.26v.27z"/></g><clipPath id="f"><path serif:id="007-rocket-1" d="M64.02 40.5h17.15v17.15H64.02z"/></clipPath><g clip-path="url(#f)" fill-rule="nonzero"><path d="M72.61 44.4a1.13 1.13 0 1 0 0 2.26 1.13 1.13 0 0 0 0-2.26zm0 1.75a.62.62 0 1 1 0-1.25.62.62 0 0 1 0 1.25zM71.4 51.66a.25.25 0 0 0-.26.25v1.26a.25.25 0 1 0 .5 0V51.9a.25.25 0 0 0-.24-.25zM72.61 51.66a.25.25 0 0 0-.25.25v1.26a.25.25 0 1 0 .5 0V51.9a.25.25 0 0 0-.24-.25zM73.84 51.66a.25.25 0 0 0-.26.25v1.26c0 .14.12.25.26.25.13 0 .25-.11.25-.25V51.9a.25.25 0 0 0-.25-.25z"/><path d="M79.36 55.23h-.5a.67.67 0 0 0 .02-.18v-3.92a.25.25 0 0 0-.5 0v3.92c0 .1-.08.18-.18.18H67a.19.19 0 0 1-.2-.18v-9.28c0-.1.1-.18.2-.18h3.62v.8H67.9a.36.36 0 0 0-.32.35v7.37c0 .2.16.36.36.36h9.3c.2 0 .35-.16.35-.36v-7.37a.36.36 0 0 0-.32-.36H74.6v-.8h3.59c.1 0 .18.09.18.2v4.18a.25.25 0 1 0 .5 0v-4.19c0-.38-.3-.69-.68-.69H74.6v-1.3a.25.25 0 0 0-.03-.12l-1.62-2.95a.4.4 0 0 0-.7 0l-1.61 2.95a.25.25 0 0 0-.03.12v1.3h-3.63c-.38 0-.68.31-.68.7v9.27c0 .06 0 .13.02.18h-.5c-.36 0-.65.3-.65.66v1.1c0 .37.29.66.65.66H72a.25.25 0 1 0 0-.5h-6.18a.15.15 0 0 1-.15-.15v-1.11c0-.09.07-.15.15-.15h4.13V56c0 .38.31.7.7.7h3.88c.38 0 .69-.32.69-.7v-.26h4.13c.08 0 .15.06.15.15v1.1c0 .09-.07.16-.15.16h-6.18a.25.25 0 1 0 0 .5h6.18c.36 0 .65-.3.65-.65v-1.11c0-.36-.29-.66-.65-.66zm-9.8-8.35h.77c-.23.28-.45.52-.68.9h-.1v-.9zm-1.47 0h.96v.9h-.96v-.9zm9 0v.9h-1.5c-.24-.38-.46-.62-.7-.9h2.2zm-2.48.44l.16.2c.7.82 1.13 1.88 1.17 3.02l-1.33-1.12v-2.1zm-2-6.2l1.33 2.41h-2.65l1.32-2.41zm-1.49 2.91h2.99v5.52h-1.24v-2.3a.25.25 0 0 0-.5 0v2.3h-1.25v-5.52zm2.62 6.02v.56l-.01.02h-.86v-.58h.87zm-2.25.56v-.56h.87v.58h-.85c-.01 0-.02 0-.02-.02zm-.73-.65a.4.4 0 0 0 .22.09v.56c0 .3.24.52.52.52h.86a.25.25 0 0 0 .5 0h.87c.28 0 .51-.23.51-.52v-.56a.43.43 0 0 0 .22-.1l1.3 1.08c.27.24.69.04.69-.32 0-.85-.2-1.68-.58-2.43h1.23v5.69h-9.01v-5.7h1.27a5.46 5.46 0 0 0-.57 2.44c0 .36.41.56.69.32l1.28-1.07zm-.14-.54l-1.33 1.12c.03-.98.36-1.93.93-2.72.14-.2.23-.3.4-.5v2.1zm4.1 6.59c0 .1-.08.18-.18.18h-3.89a.19.19 0 0 1-.18-.18v-.27h4.25V56z"/></g><clipPath id="g"><path serif:id="007-rocket-1" d="M72.59 117.5h17.15v17.15H72.59z"/></clipPath><g clip-path="url(#g)" fill-rule="nonzero"><path d="M81.19 121.4a1.13 1.13 0 1 0 0 2.25 1.13 1.13 0 0 0 0-2.25zm0 1.75a.62.62 0 1 1 0-1.25.62.62 0 0 1 0 1.25zM79.97 128.66a.25.25 0 0 0-.25.25v1.25a.25.25 0 1 0 .5 0v-1.25a.25.25 0 0 0-.25-.25zM81.19 128.66a.25.25 0 0 0-.25.25v1.25a.25.25 0 1 0 .5 0v-1.25a.25.25 0 0 0-.25-.25zM82.41 128.66a.25.25 0 0 0-.25.25v1.25a.25.25 0 0 0 .5 0v-1.25a.25.25 0 0 0-.25-.25z"/><path d="M87.93 132.23h-.5a.67.67 0 0 0 .03-.19v-3.91a.25.25 0 0 0-.5 0v3.91c0 .1-.09.19-.19.19h-11.2a.19.19 0 0 1-.19-.19v-9.27c0-.1.08-.19.19-.19h3.62v.8h-2.71a.36.36 0 0 0-.32.36v7.37c0 .2.16.35.36.35h9.3c.2 0 .36-.16.36-.36v-7.36a.36.36 0 0 0-.33-.36h-2.67v-.8h3.59c.1 0 .18.08.18.19v4.19a.25.25 0 1 0 .5 0v-4.2c0-.37-.3-.68-.68-.68h-3.58v-1.3a.25.25 0 0 0-.04-.12l-1.61-2.96a.4.4 0 0 0-.7 0l-1.62 2.96a.25.25 0 0 0-.03.12v1.3h-3.62c-.38 0-.69.3-.69.69v9.27c0 .07 0 .13.03.19h-.5c-.37 0-.66.3-.66.65V134c0 .36.3.66.65.66h6.18a.25.25 0 1 0 0-.5H74.4a.15.15 0 0 1-.15-.16v-1.1c0-.09.07-.16.15-.16h4.14v.27c0 .38.3.69.68.69h3.9c.37 0 .68-.3.68-.69v-.27h4.13c.09 0 .15.07.15.15V134c0 .08-.06.15-.15.15h-6.18a.25.25 0 1 0 0 .5h6.18c.36 0 .66-.29.66-.65v-1.1c0-.37-.3-.66-.66-.66zm-9.8-8.35h.78c-.24.28-.45.52-.7.89h-.08v-.89zm-1.47 0h.97v.89h-.97v-.89zm9.01 0v.89h-1.51c-.24-.37-.45-.61-.69-.89h2.2zm-2.48.44l.16.2c.7.81 1.12 1.87 1.16 3.01l-1.33-1.11v-2.1zm-2-6.2l1.32 2.4h-2.64l1.32-2.4zm-1.5 2.9h3v5.52h-1.25v-2.3a.25.25 0 0 0-.5 0v2.3H79.7v-5.51zm2.63 6.03v.56l-.02.02h-.86v-.58h.88zm-2.26.56v-.56h.88v.58h-.86l-.02-.02zm-.72-.66a.4.4 0 0 0 .22.1v.56c0 .29.23.52.52.52h.86a.25.25 0 0 0 .5 0h.86c.29 0 .52-.23.52-.52v-.57a.43.43 0 0 0 .22-.1l1.29 1.09c.27.23.69.03.69-.32 0-.85-.2-1.69-.58-2.44h1.23v5.7h-9v-5.7h1.26a5.47 5.47 0 0 0-.57 2.44c0 .35.42.55.7.32l1.28-1.08zm-.15-.53l-1.32 1.11c.03-.97.35-1.92.93-2.72.13-.19.23-.3.4-.5v2.1zm4.1 6.58c0 .1-.08.19-.18.19h-3.88a.19.19 0 0 1-.19-.19v-.27h4.26v.27z"/></g><clipPath id="h"><path serif:id="008-computer" d="M106.16 75.78h29.15v29.15h-29.15z"/></clipPath><g clip-path="url(#h)" fill-rule="nonzero"><path d="M116.21 94.72h-.86a.43.43 0 1 0 0 .86h.86a.43.43 0 1 0 0-.86zM119.42 94.72h-.86a.43.43 0 1 0 0 .86h.86a.43.43 0 0 0 0-.86zM122.64 94.72h-.87a.43.43 0 1 0 0 .86h.87a.43.43 0 1 0 0-.86zM125.85 94.72h-.87a.43.43 0 1 0 0 .86h.87a.43.43 0 1 0 0-.86z"/><path d="M133.33 89.56c-.24 0-.43.19-.43.43v7.86c0 .75-.61 1.36-1.36 1.36h-21.62c-.75 0-1.36-.6-1.36-1.36V80.13c0-.75.6-1.36 1.36-1.36h13.46v.68h-2.57c-.3 0-.54.19-.61.45h-9.92a.58.58 0 0 0-.37.14l-.03.02-.01.02-.02.01-.02.03a.59.59 0 0 0-.14.37v17c0 .32.27.59.6.59h20.89c.32 0 .58-.27.58-.6V80.5a.59.59 0 0 0-.58-.59h-3.73v-1.13h4.09c.75 0 1.36.6 1.36 1.36V88a.43.43 0 0 0 .86 0v-7.86c0-1.22-1-2.22-2.22-2.22h-4.1v-1.5a.64.64 0 0 0-.63-.63H124a.64.64 0 0 0-.63.63v1.5h-13.46c-1.22 0-2.22 1-2.22 2.22v17.72c0 1.22 1 2.22 2.22 2.22h7.4v1.97h-1.36c-.62 0-1.13.51-1.13 1.14v.6c0 .64.5 1.14 1.13 1.14h3.64a.43.43 0 1 0 0-.85h-3.64a.28.28 0 0 1-.28-.28v-.61c0-.16.13-.29.28-.29h9.54c.15 0 .28.13.28.29v.6c0 .16-.13.29-.28.29h-3.9a.43.43 0 0 0 0 .85h3.9c.62 0 1.13-.5 1.13-1.13v-.61c0-.63-.5-1.14-1.13-1.14h-1.36v-1.97h7.4c1.22 0 2.22-1 2.22-2.22v-7.86c0-.24-.2-.43-.43-.43zm-12.3-9.23v-.03h2.35v12.72h-2.36V80.33zm-6.97.43h6.1v1.92h-2.56c-.2 0-.37.09-.5.22h-3.04v-2.14zm6.1 2.77v9.5h-2.35v-9.5h2.36zm-9.61-2.77h2.65v2.14h-2.65v-2.14zm16.9 0h3.46v2.14h-3.46v-2.14zm-3.22-4.13h2.36v16.4h-2.36v-16.4zm4.31 17.25a.43.43 0 1 0 0-.86h-1.1v-9.26h3.47v13.46h-20.36V83.76h6.4v1.99h-2.57a.64.64 0 0 0-.63.63v6.64h-1.1a.43.43 0 1 0 0 .86h15.9zm-11.58-7.28v6.42h-2.36V86.6h2.36zm6.32 15.44h-5.1v-1.97h5.1v1.97z"/></g><path d="M68.6 4.75H50.91a.43.43 0 1 0 0 .85H68.6a.43.43 0 0 0 0-.85zM66.88 20.85h-.93c-.05-.15-.11-.3-.18-.44l.65-.66a.56.56 0 0 0 0-.8l-.83-.83a.57.57 0 0 0-.64-.11v-1.5c0-.36-.3-.66-.66-.66h-1.82c-.11-.39-.27-.77-.46-1.13l1.28-1.28a.66.66 0 0 0 0-.94l-1.43-1.43a.67.67 0 0 0-.93 0l-1.29 1.29a5.8 5.8 0 0 0-1.13-.47v-1.82c0-.36-.3-.66-.66-.66h-2.02c-.37 0-.66.3-.66.66v1.82c-.4.12-.77.27-1.13.47l-1.29-1.29a.67.67 0 0 0-.93 0l-1.43 1.43a.66.66 0 0 0 0 .94l1.28 1.28c-.2.36-.35.74-.46 1.13h-1.82c-.37 0-.66.3-.66.67v2.01c0 .37.3.67.66.67h1.82c.11.39.27.77.46 1.13L50.4 21.6a.67.67 0 0 0 0 .94l1.43 1.43c.25.25.67.25.93 0l1.29-1.29c.36.2.74.35 1.13.47v1.82c0 .36.3.66.66.66h2.02c.36 0 .66-.3.66-.66v-.15c.03.08.08.16.14.23l.83.83c.22.22.58.22.8 0l.66-.66c.14.08.3.14.45.19v.93c0 .3.25.56.56.56h1.18c.3 0 .56-.25.56-.56v-.93c.15-.05.3-.11.45-.19l.65.66c.22.22.58.22.8 0l.83-.83a.56.56 0 0 0 0-.8l-.65-.66c.07-.14.13-.29.18-.44h.93c.31 0 .57-.26.57-.57v-1.17a.57.57 0 0 0-.57-.57zm-8.68 0a.56.56 0 0 0-.57.57c0 1.25 0 1.24.03 1.36v2h-1.64v-1.95c0-.2-.14-.37-.33-.42a4.98 4.98 0 0 1-1.5-.62.43.43 0 0 0-.52.07l-1.39 1.38-1.15-1.16 1.38-1.38a.43.43 0 0 0 .06-.53 5 5 0 0 1-.62-1.5.43.43 0 0 0-.41-.33h-1.96v-1.63h1.96c.2 0 .37-.14.41-.33a5 5 0 0 1 .62-1.5.43.43 0 0 0-.06-.53l-1.38-1.38 1.15-1.16 1.39 1.39c.14.14.36.16.52.06.47-.29.97-.5 1.5-.62.2-.05.33-.22.33-.42v-1.95h1.64v1.95c0 .2.14.37.33.42.53.12 1.03.33 1.5.62.16.1.38.08.52-.06l1.39-1.39 1.15 1.16-1.38 1.38a.43.43 0 0 0-.06.53 5 5 0 0 1 .62 1.5c.04.19.22.33.41.33h1.96v1.63h-.4v-.68a.57.57 0 0 0-.57-.56h-1.18a.57.57 0 0 0-.56.56v.93c-.16.05-.3.12-.45.19l-.66-.66a.57.57 0 0 0-.58-.13 2.9 2.9 0 1 0-1.03 1.78l.64.64-.19.44h-.92zm.68-3.32a2.04 2.04 0 1 1-4.09 0 2.04 2.04 0 0 1 4.1 0zm-.23 6.73a.57.57 0 0 0-.14.23v-1.33h.62c.05.15.1.3.18.44l-.66.66zm7.94-1.96h-.96c-.2 0-.37.14-.42.33-.06.3-.18.57-.33.82-.11.17-.08.39.06.53l.68.68-.43.42-.68-.68a.43.43 0 0 0-.52-.06c-.26.16-.53.27-.82.34a.43.43 0 0 0-.33.42v.96h-.6v-.96c0-.2-.14-.37-.33-.42a2.74 2.74 0 0 1-.82-.34.43.43 0 0 0-.53.06l-.68.68-.42-.42.68-.68a.43.43 0 0 0 .06-.53 2.72 2.72 0 0 1-.34-.82.43.43 0 0 0-.41-.33h-.96v-.6h.96c.17 0 .32-.1.4-.25.03-.09.07-.44.35-.9a.43.43 0 0 0-.06-.52l-.68-.68.42-.42.68.68c.14.14.36.16.53.06.25-.16.53-.27.82-.34.2-.04.33-.22.33-.42v-.96h.6v.96c0 .2.13.38.33.42.29.07.56.18.82.34.17.1.38.08.52-.06l.68-.68.43.42-.68.68a.43.43 0 0 0-.06.53c.15.25.27.53.33.82.05.19.22.33.42.33h.96v.6z" fill-rule="nonzero"/><path d="M62.54 20.14a1.87 1.87 0 1 0 0 3.74 1.87 1.87 0 0 0 0-3.74zm0 2.88a1.01 1.01 0 1 1 0-2.03 1.01 1.01 0 0 1 0 2.03zM72.17 18.1c-.24 0-.43.19-.43.42v9.92c0 .14-.12.26-.26.26H59.02a.43.43 0 1 0 0 .85h12.46c.62 0 1.11-.5 1.11-1.1v-9.93c0-.23-.19-.43-.42-.43z" fill-rule="nonzero"/><path d="M71.48 2.3H44.56c-.62 0-1.11.5-1.11 1.11v25.03c0 .62.5 1.11 1.1 1.11h12.47a.43.43 0 1 0 0-.85H44.56a.26.26 0 0 1-.26-.26V8.04h27.44v8.49a.43.43 0 1 0 .86 0V3.4c0-.61-.5-1.1-1.12-1.1zM48.14 7.2H44.3V3.42c0-.15.13-.27.28-.27h3.56v4.03zm23.6 0H49V3.15h22.47c.15 0 .28.12.28.27V7.2zM16.56 76.55l-.13-.98a.22.22 0 0 0-.25-.19l-.98.13a.22.22 0 0 0 .05.44l.46-.06-2.44 3.18a.91.91 0 1 0 .34.27l2.45-3.19.06.46c.01.11.1.19.22.19h.03c.12-.02.2-.13.19-.25zm-3.66 3.81a.47.47 0 1 1 0-.94.47.47 0 0 1 0 .94zM16.5 80.33l-.45-.44.44-.44a.22.22 0 1 0-.3-.3l-.45.43-.43-.44a.22.22 0 1 0-.32.31l.44.44-.44.44a.22.22 0 0 0 0 .31c.1.09.23.09.32 0l.43-.44.44.44c.09.09.23.09.31 0a.22.22 0 0 0 0-.31zM13.2 76.2l.44-.45a.22.22 0 1 0-.3-.3l-.44.43-.44-.44a.22.22 0 1 0-.31.31l.43.44-.43.44a.22.22 0 1 0 .3.31l.44-.44.44.44a.22.22 0 1 0 .31-.31l-.43-.44zM16.09 73.24h-3.64a.22.22 0 0 0 0 .44h3.64a.22.22 0 0 0 0-.44zM16.09 74.1h-3.64c-.12 0-.21.09-.21.21s.1.22.22.22h3.63a.22.22 0 0 0 0-.44z" fill-rule="nonzero"/><path d="M19.62 76.89c-.12 0-.22.1-.22.22v5.16c0 .31-.26.57-.58.57h-9.1a.58.58 0 0 1-.58-.57V70.92c0-.31.26-.57.58-.57h1.86v.12c0 .32.26.57.57.57h.09v.4h-1.98c-.2 0-.37.16-.37.37v9.91c0 .2.16.37.37.37h3.5c.12 0 .22-.1.22-.22s-.1-.22-.22-.22h-3.43v-9.78h1.9v.35c0 .27.22.49.5.49h3.1c.26 0 .48-.22.48-.49v-.35h1.9v9.78H14.8a.22.22 0 0 0 0 .44h3.5c.2 0 .37-.16.37-.37v-9.91c0-.2-.17-.38-.38-.38h-1.97v-.39h.08c.31 0 .57-.25.57-.57v-.12h1.86c.32 0 .58.26.58.57v5.16a.22.22 0 0 0 .44 0v-5.16c0-.56-.46-1.01-1.02-1.01h-1.86v-.14a.57.57 0 0 0-.57-.57h-1.2v-.36a.58.58 0 0 0-.57-.57h-.7a.57.57 0 0 0-.57.57v.36h-1.2a.57.57 0 0 0-.57.57v.14H9.72c-.56 0-1.02.45-1.02 1.01v11.35c0 .56.46 1.01 1.02 1.01h9.1c.56 0 1.02-.45 1.02-1.01V77.1c0-.12-.1-.22-.22-.22zm-3.75-4.67c0 .03-.02.05-.05.05h-3.1a.05.05 0 0 1-.05-.05v-.35h3.2v.35zm0-.79h-3.2v-.39h3.2v.4zm-2.08-2.59c0-.07.06-.13.13-.13h.7c.07 0 .13.06.13.13v.36h-.96v-.36zm-1.77.93c0-.07.06-.13.13-.13h4.24c.07 0 .13.06.13.13v.7c0 .07-.06.13-.13.13h-4.24a.14.14 0 0 1-.13-.13v-.7zM118.89 58.2l-.13-.98a.22.22 0 0 0-.25-.19l-.98.13a.22.22 0 1 0 .06.44l.46-.06-2.44 3.18a.91.91 0 1 0 .34.27l2.44-3.18.06.45c.02.11.11.2.22.2h.03c.12-.02.2-.13.19-.25zm-3.66 3.82a.47.47 0 1 1 0-.94.47.47 0 0 1 0 .94zM118.83 61.98l-.44-.43.44-.44a.22.22 0 1 0-.31-.31l-.44.43-.44-.43a.22.22 0 1 0-.31.3l.44.45-.44.43a.22.22 0 1 0 .31.32l.44-.44.44.43a.22.22 0 1 0 .3-.3zM115.54 57.84l.44-.43a.22.22 0 1 0-.31-.31l-.44.43-.44-.43a.22.22 0 1 0-.31.3l.44.44-.44.44a.22.22 0 1 0 .31.31l.44-.43.44.43a.22.22 0 1 0 .3-.3l-.43-.44zM118.42 54.9h-3.63c-.12 0-.22.09-.22.21s.1.22.22.22h3.63a.22.22 0 0 0 0-.44zM118.42 55.75h-3.63a.22.22 0 0 0 0 .44h3.63a.22.22 0 0 0 0-.44z" fill-rule="nonzero"/><path d="M121.95 58.54c-.12 0-.22.1-.22.22v5.16c0 .32-.25.58-.57.58h-9.1a.58.58 0 0 1-.58-.58V52.58c0-.32.25-.58.57-.58h1.87v.13c0 .31.25.57.57.57h.08v.39h-1.98c-.2 0-.37.16-.37.37v9.91c0 .21.17.38.37.38h3.5c.13 0 .23-.1.23-.22 0-.13-.1-.22-.22-.22h-3.44v-9.78h1.91v.34c0 .27.22.49.49.49h3.1c.26 0 .48-.22.48-.49v-.34h1.91v9.78h-3.43a.22.22 0 0 0 0 .44h3.5c.2 0 .37-.17.37-.38v-9.9c0-.22-.17-.38-.37-.38h-1.98v-.4h.08c.32 0 .58-.25.58-.57V52h1.86c.32 0 .58.26.58.58v5.15a.22.22 0 1 0 .43 0v-5.15c0-.56-.45-1.02-1.01-1.02h-1.87v-.13a.57.57 0 0 0-.57-.58h-1.2v-.35a.57.57 0 0 0-.57-.58h-.7a.57.57 0 0 0-.56.58v.35h-1.2a.57.57 0 0 0-.57.58v.13h-1.87c-.56 0-1.01.46-1.01 1.02v11.34c0 .56.45 1.02 1.01 1.02h9.1c.57 0 1.02-.46 1.02-1.02v-5.16c0-.12-.1-.22-.21-.22zm-3.75-4.67c0 .03-.02.05-.04.05h-3.1a.04.04 0 0 1-.05-.04v-.35h3.2v.34zm0-.78h-3.19v-.4h3.2v.4zm-2.08-2.6c0-.06.07-.13.14-.13h.7c.07 0 .13.07.13.14v.36h-.97v-.36zm-1.77.94c0-.07.07-.13.14-.13h4.23c.08 0 .14.06.14.13v.7c0 .07-.07.13-.14.13h-4.23a.14.14 0 0 1-.13-.14v-.7zM51.89 125.29l-.13-.98a.22.22 0 0 0-.25-.2l-.98.14a.22.22 0 0 0 .06.43l.45-.06-2.44 3.18a.9.9 0 1 0 .35.28l2.44-3.19.06.46c.02.1.11.19.22.19h.03c.12-.02.2-.13.19-.25zm-3.66 3.81a.47.47 0 1 1 0-.94.47.47 0 0 1 0 .94zM51.82 129.07l-.43-.44.43-.44a.22.22 0 1 0-.3-.3l-.45.43-.43-.44a.22.22 0 1 0-.31.31l.43.44-.43.44a.22.22 0 1 0 .3.31l.44-.44.44.44a.22.22 0 1 0 .31-.31zM48.54 124.93l.44-.44a.22.22 0 1 0-.32-.3l-.43.43-.44-.44a.22.22 0 1 0-.31.31l.43.44-.43.44a.22.22 0 1 0 .3.3l.44-.43.44.44a.22.22 0 0 0 .32 0 .22.22 0 0 0 0-.31l-.44-.44zM51.42 121.98h-3.63a.22.22 0 0 0 0 .44h3.63a.22.22 0 0 0 0-.44zM51.42 122.83h-3.63a.22.22 0 0 0 0 .44h3.63c.12 0 .22-.1.22-.22s-.1-.22-.22-.22z" fill-rule="nonzero"/><path d="M54.95 125.63c-.12 0-.22.1-.22.22V131c0 .32-.26.58-.57.58h-9.11a.58.58 0 0 1-.58-.58v-11.34c0-.32.26-.58.58-.58h1.86v.13c0 .32.26.57.57.57h.09v.4h-1.98c-.2 0-.37.16-.37.37v9.9c0 .22.16.38.37.38h3.5a.22.22 0 0 0 0-.44h-3.43v-9.78h1.9v.35c0 .27.22.49.5.49h3.1c.26 0 .48-.22.48-.5v-.34h1.9v9.78h-3.42a.22.22 0 1 0 0 .44h3.5c.2 0 .37-.17.37-.37v-9.91c0-.21-.17-.38-.38-.38h-1.97v-.39h.08c.31 0 .57-.25.57-.57v-.12h1.86c.32 0 .58.25.58.57v5.16a.22.22 0 0 0 .44 0v-5.16c0-.56-.46-1.01-1.02-1.01H52.3v-.14a.57.57 0 0 0-.57-.57h-1.2v-.36a.57.57 0 0 0-.57-.57h-.7a.57.57 0 0 0-.57.57v.36h-1.2a.57.57 0 0 0-.57.57v.14h-1.86c-.56 0-1.02.45-1.02 1.01V131c0 .57.46 1.02 1.02 1.02h9.1c.56 0 1.02-.45 1.02-1.02v-5.15c0-.12-.1-.22-.22-.22zm-3.75-4.67c0 .02-.02.05-.05.05h-3.1a.05.05 0 0 1-.04-.05v-.35h3.19v.35zm0-.79H48v-.39h3.2v.4zm-2.08-2.59c0-.07.06-.13.14-.13h.69c.07 0 .13.06.13.13v.36h-.96v-.36zm-1.77.93c0-.07.06-.13.13-.13h4.24c.07 0 .13.06.13.13v.7c0 .07-.06.13-.13.13h-4.23a.14.14 0 0 1-.14-.13v-.7z" fill-rule="nonzero"/><clipPath id="i"><path serif:id="012-package" d="M70.59 88.35h29.15v29.15H70.59z"/></clipPath><g clip-path="url(#i)"><path d="M99.63 102.8l-2.28-4.01a5.29 5.29 0 0 0 .37-4.54l.78-.8a1.37 1.37 0 1 0-1.98-1.92l-.44.46a5.3 5.3 0 0 0-2.25-1.07.43.43 0 1 0-.17.84c.66.14 1.29.43 1.82.84l-2.84 2.93-1.06-1.06a1.38 1.38 0 1 0-1.95 1.95l2.05 2.05c.56.55 1.44.52 1.96-.02l3.41-3.51a4.47 4.47 0 1 1-5.21-3.18.43.43 0 0 0-.18-.84 5.33 5.33 0 0 0-4.1 6.36H74.65c-.5 0-.96.27-1.2.7l-2.75 4.81a.82.82 0 0 0 .72 1.23h2.24v9.64c0 .7.58 1.27 1.28 1.27H95.4c.7 0 1.27-.57 1.27-1.27v-4.14a.43.43 0 1 0-.85 0v4.14c0 .23-.19.42-.42.42h-9.8V99.32l2.34 4.13c.2.35.59.57 1 .57h6.88v3.51a.43.43 0 0 0 .85 0v-3.51h2.25a.82.82 0 0 0 .71-1.23zm-28.16.37l2.72-4.76c.09-.17.27-.27.46-.27h9.78l-2.78 4.88a.28.28 0 0 1-.25.15h-9.93zm13.27 10.91h-9.8a.42.42 0 0 1-.42-.42v-9.64h6.88c.41 0 .79-.22 1-.57l2.34-4.13v14.76zm8.3-16.22c-.21.2-.55.2-.75 0l-2.05-2.05a.52.52 0 0 1 .73-.73l1.37 1.36c.17.17.45.17.61 0l4.18-4.31a.52.52 0 1 1 .75.72l-4.85 5zm-4.1 5.3c-.1 0-.2-.05-.25-.14l-2.79-4.88h1.92a5.32 5.32 0 0 0 8.99 1.42l2.05 3.6h-9.93z" fill-rule="nonzero"/></g><path d="M119.27 12.48h-1.8a.43.43 0 1 0 0 .86h1.8a.43.43 0 1 0 0-.86zM119.56 35.45h-2.38c-.59 0-1.07.48-1.07 1.07v.33c0 .59.48 1.07 1.07 1.07h2.38c.6 0 1.08-.48 1.08-1.07v-.33c0-.59-.48-1.07-1.08-1.07zm.22 1.4c0 .11-.1.21-.21.21h-2.39a.22.22 0 0 1-.22-.21v-.33c0-.12.1-.22.22-.22h2.38c.12 0 .22.1.22.22v.33z" fill-rule="nonzero"/><path d="M133.16 24.64h-1.29c-.08-.25-.18-.5-.3-.73l.91-.91a.6.6 0 0 0 0-.86l-1.07-1.08a.6.6 0 0 0-.86 0l-.91.92a4.42 4.42 0 0 0-.73-.3v-1.3a.6.6 0 0 0-.6-.6h-1.25v-2.26c0-.24-.2-.43-.43-.43-.24 0-.45.2-.45.43v4.16c-.25.07-.5.18-.73.3l-.24-.24v-6.37a.78.78 0 0 0-.77-.77H112.3a.78.78 0 0 0-.78.77v18.61c0 .43.35.78.78.78h12.13c.43 0 .77-.35.77-.78v-3.71l.24-.24c.24.12.48.22.73.3 0 1.37 0 1.35.02 1.46v5.87c0 .52-.42.95-.94.95h-5.9a.43.43 0 0 0 0 .85h5.9c.99 0 1.8-.8 1.8-1.8v-5.43h1.25a.6.6 0 0 0 .6-.61v-1.3c.25-.07.5-.17.73-.3l.91.92a.6.6 0 0 0 .86 0l1.07-1.08a.6.6 0 0 0 0-.86l-.91-.9c.12-.24.22-.48.3-.73h1.3a.6.6 0 0 0 .6-.6v-1.53a.6.6 0 0 0-.6-.6zm-18.27-9.19h9.47v1.85h-9.47v-1.85zm-2.5 0h1.64v1.85h-1.64v-1.85zm0 18.45V18.16h11.97v2.78a.6.6 0 0 0-.68.12l-1.07 1.08a.6.6 0 0 0 0 .86l.91.9a4.34 4.34 0 0 0-.3.74h-1.3a.6.6 0 0 0-.6.6v.33h-7.2a.43.43 0 0 0 0 .86h7.2v.33c0 .34.27.6.6.6h1.3c.07.24.17.48.3.73l-.91.92a.6.6 0 0 0 0 .85l1.07 1.08c.18.18.45.23.68.12v2.84h-11.97zm20.52-7.39h-1.37c-.2 0-.37.14-.41.33-.1.4-.24.76-.46 1.1-.1.17-.07.39.07.53l.96.97-.72.72-.97-.97a.43.43 0 0 0-.53-.06c-.33.21-.7.36-1.1.46a.43.43 0 0 0-.32.41v1.37h-1.03V30c0-.2-.13-.37-.33-.41-.39-.1-.75-.25-1.1-.46a.43.43 0 0 0-.52.06l-.97.97-.72-.72.97-.97a.43.43 0 0 0 .06-.53c-.21-.34-.37-.7-.46-1.1a.43.43 0 0 0-.41-.33h-1.37V25.5h1.37c.2 0 .37-.14.41-.33.09-.37.24-.75.46-1.1a.43.43 0 0 0-.06-.53l-.65-.64-.32-.32.72-.73.97.97c.14.14.36.17.53.06.34-.2.7-.36 1.1-.45.19-.05.32-.22.32-.42v-1.37h1.03V22c0 .2.13.37.33.42.39.09.76.24 1.1.45.16.1.38.08.52-.06l.97-.97.72.73-.96.96a.43.43 0 0 0-.07.53c.22.34.37.71.46 1.1.04.2.22.33.41.33h1.37v1.02z" fill-rule="nonzero"/><path d="M127.55 23.71a2.3 2.3 0 1 0 0 4.59 2.3 2.3 0 0 0 0-4.59zm0 3.72a1.44 1.44 0 1 1 0-2.87 1.44 1.44 0 0 1 0 2.88zM121.75 20.93h-7.63a.43.43 0 0 0 0 .86h7.63a.43.43 0 0 0 0-.86zM121.75 23.25h-7.63a.43.43 0 0 0 0 .86h7.63a.43.43 0 0 0 0-.86zM121.75 27.9h-7.63a.43.43 0 0 0 0 .85h7.63a.43.43 0 0 0 0-.86zM121.75 30.21h-7.63a.43.43 0 0 0 0 .86h7.63a.43.43 0 0 0 0-.86z" fill-rule="nonzero"/><path d="M125.26 10.31h-13.77c-1 0-1.8.81-1.8 1.8v25.55c0 1 .8 1.8 1.8 1.8h5.89a.43.43 0 1 0 0-.85h-5.89a.95.95 0 0 1-.95-.95V12.12c0-.53.43-.95.95-.95h13.77c.52 0 .94.42.94.95v3.4a.43.43 0 1 0 .86 0v-3.4c0-1-.81-1.8-1.8-1.8z" fill-rule="nonzero"/></g></svg>