<svg version="1" xmlns="http://www.w3.org/2000/svg" width="933.333" height="933.333" viewBox="0 0 700.000000 700.000000"><path d="M327.8.5c-.2.1-4.2.6-8.9.9-4.7.4-9.6.9-11 1.1-1.3.3-4.6.7-7.4 1-2.7.2-6.1.7-7.5 1-1.4.3-4.1.8-6 1.1-17.4 3-41.1 9.6-60 16.6C150.6 50.7 85.9 106 45.1 177.7 28.4 207.2 12.5 249.3 7.4 278c-.2 1.4-1.1 5.9-1.9 10C1.9 306.8.6 322.6.6 349c-.1 24.7.8 37 4 56 .7 4.7 1.6 10.3 2 12.4.3 2.2 1 5.1 1.6 6.5.5 1.4.9 2.7.8 2.9-.3.5 1.3 7 4.6 18.7 17.1 60.9 52.5 118.1 99.5 161 11.7 10.6 13.9 12.5 24.5 20.6 33 25.1 68.5 43.4 107.9 55.8 17.8 5.6 41.3 10.8 57 12.7 3.3.3 7.1.8 8.5 1 18.2 2.3 69.9 2.3 77.3-.1.6-.2 4-.6 7.5-1 3.4-.3 8.6-1 11.5-1.6 2.9-.5 6.6-1.2 8.2-1.5 6.9-1.2 17.7-3.8 29-6.9 93.7-26.3 173.5-92.2 217-179.3 14.4-29 27.1-66.2 31-91.2.3-1.9.8-4.6 1-6 1.2-5.7 1.4-7.2 2-13.7.4-3.7.9-7 1-7.3.2-.3.7-5.3 1.1-11 1.4-18.8.8-55.4-1.1-67-.2-1.4-.6-4.5-.9-7-.6-6.2-3.1-19.6-5.6-31-10.9-49-33.4-96.6-64.5-136.5-3.8-5-7.4-9.5-8-10.1-.5-.6-3.3-3.7-6.2-7-32.7-37.5-78.2-70.5-123.8-89.8-1.6-.7-4.1-1.8-5.5-2.5-6.9-3.1-26.3-9.8-38-13.1-7.1-2-8.9-2.5-13.5-3.4-1.1-.2-3.8-.9-6-1.5-2.2-.5-5.6-1.3-7.5-1.6-1.9-.3-6-1-9-1.5-9.6-1.6-17.4-2.7-26.5-3.6C376 .8 328.3 0 327.8.5zm46.2 46c5.2.4 10.3.9 11.4 1.1 1.1.2 4.2.6 6.9.9 12.3 1.4 46.3 9.3 50.2 11.6.6.4 2.3.9 3.9 1.3 10.3 2.5 38.6 15.3 55.1 24.9 34.5 20.1 66.9 48.6 89 78.2 1.7 2.2 3.3 4.2 3.6 4.5 1.1 1 12.8 18.8 17.5 26.6 14 23.8 25.9 53.1 32.8 80.9 2.7 10.6 3 12.3 4.6 22.5.6 3.6 1.3 7.5 1.5 8.7.2 1.2.7 5.7 1 10 .4 4.3.9 8.9 1.1 10.3.5 3.7.4 38.7-.1 44.5-.2 2.7-.7 7-1 9.5-.3 2.5-.8 6.5-1.1 9-.3 2.5-.9 6.7-1.4 9.5-.5 2.7-1.1 6.1-1.4 7.5-4.4 26.3-19.5 66.8-34.5 92.5-9.1 15.6-23.2 35.5-34.3 48.3-6.5 7.5-23.5 24.3-30.1 29.9-3.8 3.2-7.8 6.6-9 7.7-4.7 4-22.6 16.7-30.2 21.3-13.6 8.5-27.8 15.6-47 23.9-16.9 7.2-55 17.2-72.5 18.9-1.4.2-5 .6-8 .9-3 .4-7.5.9-10 1.1-6 .5-40.5.5-45.5 0-14.4-1.5-27.3-3.2-31.8-4.1-1.2-.2-3.5-.7-5.2-1-1.6-.3-8.2-1.8-14.5-3.4-74.9-19-138.7-64.9-181.4-130.5-4.4-6.7-15.3-26.1-17.8-31.5-5.7-12.5-7.4-16.5-10.5-24.5-5.6-14.6-11.9-36.8-13.9-48.5-.3-1.9-.9-5.3-1.4-7.5-.5-2.2-1.2-6.7-1.5-10-.4-3.3-.9-6.2-1-6.5-.7-1.1-1.9-24.1-1.8-35.5 0-11.5.9-29.2 1.7-34.5.3-1.4.7-4.9 1-7.8.4-2.9 1.9-11.7 3.5-19.5 9.3-46.1 29.9-90.1 60.1-128.1 29.6-37.3 69.4-67.8 116-88.9 11.3-5.1 38.8-14.5 47.6-16.3.7-.1 4.5-.9 8.5-1.9 4.1-.9 8.5-1.8 9.9-2 1.4-.2 5.4-.8 9-1.4 10.3-1.7 13.8-2 26-2.7 6.3-.4 11.6-.7 11.7-.8.5-.5 24.2.2 33.3.9z"/><path d="M241.5 96.8c-8 1.4-15.4 6.7-17.9 12.7-3.3 7.8-2.4 16.8 2.3 23.3 1.1 1.6 16.8 13.7 34.8 26.8 18.1 13 36.4 26.4 40.7 29.6 4.3 3.2 8.3 5.8 8.8 5.8.4 0 .8.6.8 1.2-.1.7-42.9 32.3-95.2 70.3-52.4 37.9-97.2 70.8-99.6 72.9-5.9 5.4-8.2 10.7-7.8 18.3.4 9.2 4.8 15.4 13.6 19.4 5.6 2.6 14.3 2.1 19.5-1 2.9-1.7 73.7-52.7 77-55.4.6-.5 21.5-15.7 46.5-33.8 25-18.1 47.5-34.5 50-36.3 2.5-1.8 11.4-8.4 19.8-14.5l15.4-11.2 2.6 1.7c1.5 1 16.7 11.9 33.7 24.3 17.1 12.4 32.1 23.4 33.5 24.3 1.4.9 9.1 6.5 17.2 12.5 8.1 5.9 17.3 12.6 20.3 14.8 3.1 2.2 6.4 4.6 7.3 5.3.9.7 8.2 6 16.2 11.8 8 5.7 15.9 11.5 17.5 12.7 1.7 1.3 12 8.8 23 16.7 11 8 20.5 14.8 21 15.2.6.4 2.4 1.8 4 3.1 15.4 11.9 25.1 14.4 34.9 8.9 13.6-7.7 15.2-27.9 2.9-37.5-1.2-1-33.9-24.8-72.5-52.9-38.7-28-82.1-59.6-96.5-70.1l-26.2-19 23.2-16.9c12.8-9.3 25.8-18.8 29.1-21.1 3.2-2.3 7.1-5.1 8.6-6.2 1.5-1.1 6.5-4.7 11-7.9 14.3-10.3 17.9-14.9 18.4-23.9.3-6.9-1-10.9-5.3-15.9-7.9-9.2-20.7-10.4-31.5-3.1-2.3 1.5-4.3 3.1-4.6 3.4-.3.3-4.1 3.1-8.5 6.2s-17 12.2-28 20.2-24.5 17.8-29.9 21.8c-5.4 4-12.2 8.9-15 10.9-2.8 2.1-5.5 3.8-6.1 3.8-.5 0-18.8-13-40.5-28.8-21.8-15.8-40.7-29.5-42-30.5-13.7-9.8-20.7-13-26.5-11.9z"/><path d="M315.5 300.7c-6 1.2-11.6 5.9-33.2 27.6-24 24.2-26.5 27.6-26.8 35.7-.4 9.4 1.3 11.8 24.5 35.2 23 23.2 26.5 25.7 35.1 25.8 12.4 0 21.6-8.1 22.6-20.1.9-9.7-1.1-13.3-15.3-27.6L310 364.9l13-13c7.1-7.1 14-14.4 15.4-16.2 7.6-10.2 4.3-25.7-7-32.3-3.9-2.3-11.4-3.6-15.9-2.7zM371.5 301.4c-8.6 3.2-14.5 10.7-15 19.2-.6 9.9 1.3 13.2 17.3 29.4 7.8 7.9 14.2 14.7 14.2 15 0 .3-4.5 5-10.1 10.5-12 12-15.6 16.8-16.6 22.6-1.1 6.7-.8 9.3 1.7 14.3 5.2 10.9 18 15.5 29.3 10.7 6.2-2.7 45.4-41.7 48.7-48.5 2.8-5.8 2.8-12.9.1-19.1-2.4-5.5-46.9-50.2-52.7-53-4.5-2.1-12.6-2.7-16.9-1.1zM117.7 444.7c-.1.1-1.4.4-2.7.6-12.8 2.1-20.7 15.5-17 28.8 1.3 4.6 7.2 11.5 11.9 13.7 3.4 1.6 18.6 1.7 237.1 1.9 136.1.1 235.1-.1 237.4-.7 5.6-1.3 11.7-5.9 14.5-11 3.2-5.7 3.5-15.7.7-20.9-2.3-4.3-7.1-8.8-11.6-10.8-3.2-1.5-25.4-1.6-236.8-1.7-128.4-.1-233.4 0-233.5.1zM163.5 509.8c-6.4.7-10.8 2.4-14.6 5.9-9.5 8.6-10.3 22-1.8 31.6 7.3 8.4-11.6 7.7 203.9 7.5 187.4-.3 191.6-.3 194.5-2.2 8.5-5.5 11.8-11.2 11.8-20.1 0-9.7-5-17.2-14.2-21.1-3.2-1.5-22.8-1.6-190.1-1.8-102.6 0-187.8 0-189.5.2zM226 575.9c-1.4.5-3.9 1.5-5.5 2.4-13.2 6.8-15 27-3.2 36.7 7.1 5.8 1.3 5.5 133.2 5.4 112.6 0 121.3-.2 125-1.8 8.5-3.7 13.8-11.5 13.9-20.7.1-9.7-5.2-17.3-14.8-21.3-3.4-1.4-16.6-1.6-125-1.5-66.6 0-122.2.4-123.6.8z"/></svg>